<svg xmlns="http://www.w3.org/2000/svg" viewBox="0 0 60 30">
  <path fill="#00247d" d="M0 0h60v30H0z"/>
  <g transform="scale(.5)">
    <path stroke="#fff" stroke-width="6" d="m0 0 60 30m0-30L0 30"/>
    <path stroke="#cc142b" stroke-width="4" d="m0 0 60 30m0-30L0 30"/>
    <path stroke="#fff" stroke-width="10" d="M30 0v30M0 15h60"/>
    <path stroke="#cc142b" stroke-width="6" d="M30 0v30M0 15h60"/>
  </g>
  <g fill="#cc142b" stroke="#fff" stroke-width=".7">
    <path d="m43 5 .7 2.1h2.2l-1.8 1.3.7 2.1L43 9.2l-1.8 1.3.7-2.1-1.8-1.3h2.2z"/>
    <path d="m50 11 .7 2.1h2.2l-1.8 1.3.7 2.1-1.8-1.3-1.8 1.3.7-2.1-1.8-1.3h2.2z"/>
    <path d="m39 16 .7 2.1h2.2l-1.8 1.3.7 2.1-1.8-1.3-1.8 1.3.7-2.1-1.8-1.3h2.2z"/>
    <path d="m48 23 .7 2.1h2.2l-1.8 1.3.7 2.1-1.8-1.3-1.8 1.3.7-2.1-1.8-1.3h2.2z"/>
  </g>
</svg>
